<svg width="20" height="20" viewBox="0 0 20 20" fill="none" xmlns="http://www.w3.org/2000/svg">
<path d="M15.8798 3.64062H4.67979C4.04327 3.64062 3.43282 3.89348 2.98273 4.34357C2.53264 4.79366 2.27979 5.40411 2.27979 6.04062V14.0406C2.27979 14.6771 2.53264 15.2876 2.98273 15.7377C3.43282 16.1878 4.04327 16.4406 4.67979 16.4406H15.8798C16.5163 16.4406 17.1268 16.1878 17.5768 15.7377C18.0269 15.2876 18.2798 14.6771 18.2798 14.0406V6.04062C18.2798 5.40411 18.0269 4.79366 17.5768 4.34357C17.1268 3.89348 16.5163 3.64063 15.8798 3.64062ZM15.3438 5.24062L10.2798 9.04062L5.21579 5.24062H15.3438ZM15.8798 14.8406H4.67979C4.46761 14.8406 4.26413 14.7563 4.1141 14.6063C3.96407 14.4563 3.87979 14.2528 3.87979 14.0406V6.24062L9.79979 10.6806C9.93826 10.7845 10.1067 10.8406 10.2798 10.8406C10.4529 10.8406 10.6213 10.7845 10.7598 10.6806L16.6798 6.24062V14.0406C16.6798 14.2528 16.5955 14.4563 16.4455 14.6063C16.2954 14.7563 16.092 14.8406 15.8798 14.8406Z" fill="#FFF0F0"/>
</svg>
