<svg width="17" height="18" viewBox="0 0 17 18" fill="none" xmlns="http://www.w3.org/2000/svg">
<g clip-path="url(#clip0_571_1723)">
<path d="M16.7404 14.9093L13.5358 11.7047C13.3912 11.56 13.1951 11.4797 12.9894 11.4797H12.4654C13.3526 10.345 13.8797 8.9179 13.8797 7.3654C13.8797 3.67219 10.8872 0.679688 7.19402 0.679688C3.5008 0.679688 0.508301 3.67219 0.508301 7.3654C0.508301 11.0586 3.5008 14.0511 7.19402 14.0511C8.74652 14.0511 10.1737 13.524 11.3083 12.6368V13.1608C11.3083 13.3665 11.3887 13.5625 11.5333 13.7072L14.7379 16.9118C15.0401 17.214 15.5287 17.214 15.8276 16.9118L16.7372 16.0022C17.0394 15.7 17.0394 15.2115 16.7404 14.9093ZM7.19402 11.4797C4.92152 11.4797 3.07973 9.64112 3.07973 7.3654C3.07973 5.0929 4.9183 3.25112 7.19402 3.25112C9.46652 3.25112 11.3083 5.08969 11.3083 7.3654C11.3083 9.6379 9.46973 11.4797 7.19402 11.4797Z" fill="#FFF0F0"/>
</g>
<defs>
<clipPath id="clip0_571_1723">
<rect width="16.4571" height="16.4571" fill="white" transform="translate(0.508789 0.679688)"/>
</clipPath>
</defs>
</svg>
