<svg width="57" height="56" viewBox="0 0 57 56" fill="none" xmlns="http://www.w3.org/2000/svg">
<g clip-path="url(#clip0_309_4190)">
<path d="M33.3225 18.8071H11.5478C11.1353 18.8071 10.7397 18.647 10.448 18.3619C10.1563 18.0768 9.99243 17.6901 9.99243 17.2869V11.2058C9.99243 10.8026 10.1563 10.4159 10.448 10.1308C10.7397 9.84572 11.1353 9.68555 11.5478 9.68555H33.3225C33.735 9.68555 34.1306 9.84572 34.4223 10.1308C34.714 10.4159 34.8779 10.8026 34.8779 11.2058V17.2869C34.8779 17.6901 34.714 18.0768 34.4223 18.3619C34.1306 18.647 33.735 18.8071 33.3225 18.8071ZM13.1031 15.7666H31.7672V12.6349H13.1031V15.7666Z" fill="white"/>
<path d="M33.3225 21.9697H11.5478C11.1353 21.9697 10.7397 22.1299 10.448 22.415C10.1563 22.7001 9.99243 23.0868 9.99243 23.49V29.4494C9.99243 29.8526 10.1563 30.2393 10.448 30.5244C10.7397 30.8095 11.1353 30.9697 11.5478 30.9697H29.2164L34.8779 25.3447V23.49C34.8779 23.0868 34.714 22.7001 34.4223 22.415C34.1306 22.1299 33.735 21.9697 33.3225 21.9697ZM31.7672 27.9292H13.1031V24.8886H31.7672V27.9292Z" fill="white"/>
<path d="M17.8624 48.4685V48.3773L18.3601 46.2641H6.88168V6.646H37.9885V22.2287L41.0992 19.3554V5.12573C41.0992 4.72253 40.9353 4.33585 40.6436 4.05074C40.3519 3.76564 39.9563 3.60547 39.5438 3.60547H5.32634C4.91383 3.60547 4.51823 3.76564 4.22654 4.05074C3.93486 4.33585 3.771 4.72253 3.771 5.12573V47.6932C3.771 48.0964 3.93486 48.4831 4.22654 48.7682C4.51823 49.0533 4.91383 49.2134 5.32634 49.2134H17.7691C17.7819 48.9633 17.8131 48.7143 17.8624 48.4685Z" fill="white"/>
<path d="M34.8792 29.708L33.666 30.909C33.967 30.8484 34.2429 30.7019 34.4588 30.4882C34.6747 30.2744 34.821 30.003 34.8792 29.708Z" fill="white"/>
<path d="M9.99243 41.5209C9.99243 41.9241 10.1563 42.3107 10.448 42.5958C10.7397 42.8809 11.1353 43.0411 11.5478 43.0411H19.0756L19.5422 41.0648L19.7444 40.2286V40.1526H13.1031V37.0513H22.964L26.0746 34.0107H11.5478C11.1353 34.0107 10.7397 34.1709 10.448 34.456C10.1563 34.7411 9.99243 35.1278 9.99243 35.531V41.5209Z" fill="white"/>
<path d="M52.7483 25.907L47.5068 20.7837C47.2741 20.5557 46.9978 20.3748 46.6935 20.2514C46.3893 20.128 46.0631 20.0645 45.7337 20.0645C45.4042 20.0645 45.0781 20.128 44.7738 20.2514C44.4695 20.3748 44.1932 20.5557 43.9606 20.7837L22.6369 41.7482L20.8793 49.0607C20.8135 49.3761 20.8121 49.7012 20.875 50.0172C20.9379 50.3332 21.064 50.634 21.246 50.9024C21.4281 51.1707 21.6625 51.4013 21.9359 51.5809C22.2092 51.7605 22.5161 51.8857 22.8391 51.9492C22.9994 51.9649 23.1609 51.9649 23.3212 51.9492C23.5118 51.9795 23.7061 51.9795 23.8967 51.9492L31.4401 50.3225L52.7483 29.4492C52.981 29.2232 53.1658 28.9543 53.2918 28.6582C53.4179 28.3621 53.4828 28.0445 53.4828 27.7237C53.4828 27.403 53.4179 27.0854 53.2918 26.7893C53.1658 26.4931 52.981 26.2243 52.7483 25.9982V25.907ZM29.8536 47.5556L24.1611 48.787L25.5454 43.2684L41.5342 27.4729L45.9203 31.76L29.8536 47.5556ZM47.6778 30.0421L43.2918 25.755L45.7648 23.3682L50.1819 27.6857L47.6778 30.0421Z" fill="white"/>
</g>
<defs>
<clipPath id="clip0_309_4190">
<rect width="55.9922" height="54.7296" fill="white" transform="translate(0.660156 0.564453)"/>
</clipPath>
</defs>
</svg>
