<svg width="57" height="56" viewBox="0 0 57 56" fill="none" xmlns="http://www.w3.org/2000/svg">
<path d="M51.0528 9.26953H38.542C35.8572 9.26953 33.2326 10.0231 30.9743 11.4448L28.3059 13.1177L25.6376 11.4448C23.3815 10.0234 20.754 9.26813 18.0698 9.26953H5.55908C4.59125 9.26953 3.80933 10.0338 3.80933 10.9798V41.3376C3.80933 42.2836 4.59125 43.0479 5.55908 43.0479H18.0698C20.7546 43.0479 23.3793 43.8015 25.6376 45.2232L28.0653 46.7518C28.1364 46.7946 28.2184 46.8213 28.3005 46.8213C28.3825 46.8213 28.4645 46.7999 28.5356 46.7518L30.9634 45.2232C33.2271 43.8015 35.8572 43.0479 38.542 43.0479H51.0528C52.0206 43.0479 52.8025 42.2836 52.8025 41.3376V10.9798C52.8025 10.0338 52.0206 9.26953 51.0528 9.26953ZM18.0698 39.1998H7.74628V13.1177H18.0698C20.0055 13.1177 21.8865 13.6575 23.5105 14.6784L26.1789 16.3512L26.5562 16.5917V41.2842C23.9534 39.9159 21.0444 39.1998 18.0698 39.1998ZM48.8656 39.1998H38.542C35.5674 39.1998 32.6585 39.9159 30.0557 41.2842V16.5917L30.433 16.3512L33.1014 14.6784C34.7254 13.6575 36.6063 13.1177 38.542 13.1177H48.8656V39.1998ZM22.0123 19.9589H11.8527C11.6395 19.9589 11.4645 20.1406 11.4645 20.3598V22.7649C11.4645 22.984 11.6395 23.1657 11.8527 23.1657H22.0068C22.2201 23.1657 22.395 22.984 22.395 22.7649V20.3598C22.4005 20.1406 22.2255 19.9589 22.0123 19.9589ZM34.2114 20.3598V22.7649C34.2114 22.984 34.3863 23.1657 34.5996 23.1657H44.7537C44.9669 23.1657 45.1419 22.984 45.1419 22.7649V20.3598C45.1419 20.1406 44.9669 19.9589 44.7537 19.9589H34.5996C34.3863 19.9589 34.2114 20.1406 34.2114 20.3598ZM22.0123 27.4415H11.8527C11.6395 27.4415 11.4645 27.6232 11.4645 27.8423V30.2474C11.4645 30.4665 11.6395 30.6483 11.8527 30.6483H22.0068C22.2201 30.6483 22.395 30.4665 22.395 30.2474V27.8423C22.4005 27.6232 22.2255 27.4415 22.0123 27.4415ZM44.7591 27.4415H34.5996C34.3863 27.4415 34.2114 27.6232 34.2114 27.8423V30.2474C34.2114 30.4665 34.3863 30.6483 34.5996 30.6483H44.7537C44.9669 30.6483 45.1419 30.4665 45.1419 30.2474V27.8423C45.1474 27.6232 44.9724 27.4415 44.7591 27.4415Z" fill="white"/>
</svg>
