<svg width="57" height="56" viewBox="0 0 57 56" fill="none" xmlns="http://www.w3.org/2000/svg">
<g clip-path="url(#clip0_309_4198)">
<path fill-rule="evenodd" clip-rule="evenodd" d="M9.12232 6.58468C9.12232 6.35788 9.21449 6.14037 9.37857 5.98C9.54264 5.81962 9.76517 5.72953 9.9972 5.72953H39.7431C39.9751 5.72953 40.1976 5.81962 40.3617 5.98C40.5258 6.14037 40.618 6.35788 40.618 6.58468V33.0464C40.618 33.7268 40.8945 34.3793 41.3867 34.8605C41.8789 35.3416 42.5465 35.6119 43.2426 35.6119C43.9387 35.6119 44.6063 35.3416 45.0985 34.8605C45.5907 34.3793 45.8672 33.7268 45.8672 33.0464V6.58468C45.8672 4.99708 45.222 3.47451 44.0735 2.3519C42.925 1.2293 41.3673 0.598633 39.7431 0.598633H9.9972C8.37297 0.598633 6.81527 1.2293 5.66677 2.3519C4.51827 3.47451 3.87305 4.99708 3.87305 6.58468V45.9215C3.87305 49.2258 6.61667 51.9076 9.9972 51.9076H21.0907C21.7868 51.9076 22.4543 51.6373 22.9466 51.1562C23.4388 50.6751 23.7153 50.0225 23.7153 49.3421C23.7153 48.6617 23.4388 48.0092 22.9466 47.5281C22.4543 47.047 21.7868 46.7767 21.0907 46.7767H9.9972C9.76517 46.7767 9.54264 46.6866 9.37857 46.5262C9.21449 46.3659 9.12232 46.1483 9.12232 45.9215V6.58468ZM16.9962 14.281C16.3001 14.281 15.6325 14.5513 15.1403 15.0324C14.6481 15.5135 14.3716 16.1661 14.3716 16.8465C14.3716 17.5269 14.6481 18.1794 15.1403 18.6605C15.6325 19.1416 16.3001 19.4119 16.9962 19.4119H32.744C33.4401 19.4119 34.1077 19.1416 34.5999 18.6605C35.0922 18.1794 35.3687 17.5269 35.3687 16.8465C35.3687 16.1661 35.0922 15.5135 34.5999 15.0324C34.1077 14.5513 33.4401 14.281 32.744 14.281H16.9962ZM14.3716 27.1083C14.3716 26.4279 14.6481 25.7753 15.1403 25.2942C15.6325 24.8131 16.3001 24.5428 16.9962 24.5428H23.9953C24.6914 24.5428 25.3589 24.8131 25.8512 25.2942C26.3434 25.7753 26.6199 26.4279 26.6199 27.1083C26.6199 27.7887 26.3434 28.4412 25.8512 28.9223C25.3589 29.4034 24.6914 29.6737 23.9953 29.6737H16.9962C16.3001 29.6737 15.6325 29.4034 15.1403 28.9223C14.6481 28.4412 14.3716 27.7887 14.3716 27.1083ZM55.5749 39.2069C55.8217 38.9715 56.0186 38.6909 56.1545 38.3812C56.2903 38.0714 56.3624 37.7385 56.3666 37.4015C56.3708 37.0645 56.3071 36.73 56.1791 36.417C56.051 36.1041 55.8612 35.8189 55.6204 35.5777C55.3796 35.3364 55.0925 35.1439 54.7756 35.0112C54.4587 34.8784 54.1181 34.8079 53.7733 34.8038C53.4285 34.7997 53.0863 34.8619 52.7661 34.9871C52.446 35.1122 52.1542 35.2978 51.9074 35.5332L37.8183 48.983L32.8525 44.1086C32.3559 43.6545 31.6983 43.4066 31.0183 43.417C30.3383 43.4275 29.6889 43.6955 29.2071 44.1647C28.7253 44.6338 28.4487 45.2675 28.4354 45.9321C28.4221 46.5967 28.6733 47.2404 29.136 47.7276L35.9356 54.3978C36.4233 54.8767 37.0846 55.1481 37.7758 55.1533C38.4671 55.1584 39.1325 54.8967 39.6276 54.4251L55.5749 39.2035V39.2069Z" fill="white"/>
</g>
<defs>
<clipPath id="clip0_309_4198">
<rect width="55.9922" height="54.7296" fill="white" transform="translate(0.374268 0.598633)"/>
</clipPath>
</defs>
</svg>
