<svg width="14" height="14" viewBox="0 0 14 14" fill="none" xmlns="http://www.w3.org/2000/svg">
<path d="M9.99024 6.0918C9.99024 8.02148 8.41992 9.5918 6.49023 9.5918C4.56055 9.5918 2.99023 8.02148 2.99023 6.0918C2.99023 4.16211 4.56055 2.5918 6.49023 2.5918C8.41992 2.5918 9.99024 4.16211 9.99024 6.0918ZM13.9902 12.5918C13.9902 12.3262 13.8809 12.0684 13.7012 11.8887L11.0215 9.20898C11.6543 8.29492 11.9902 7.20117 11.9902 6.0918C11.9902 3.05273 9.5293 0.591796 6.49023 0.591796C3.45117 0.591796 0.990234 3.05273 0.990234 6.0918C0.990234 9.13086 3.45117 11.5918 6.49023 11.5918C7.59961 11.5918 8.69336 11.2559 9.60742 10.623L12.2871 13.2949C12.4668 13.4824 12.7246 13.5918 12.9902 13.5918C13.5371 13.5918 13.9902 13.1387 13.9902 12.5918Z" fill="black" fill-opacity="0.6"/>
</svg>
