<svg width="120" height="32" viewBox="0 0 120 32" fill="none" xmlns="http://www.w3.org/2000/svg">
<g clip-path="url(#clip0_449_2496)">
<path fill-rule="evenodd" clip-rule="evenodd" d="M89.1593 11.19H83.581V18.2459C83.581 19.2854 83.9398 19.6003 85.3425 19.6003H88.5069V23.9158H84.8532C80.5145 23.9158 78.7529 22.2778 78.7529 18.5294V11.19H74.6751V7.22102H78.7529V3.03158H83.581V7.22102H89.1593V11.19ZM53.7909 15.3257C53.7909 10.4793 57.7334 6.73684 63.2213 6.73684C68.7417 6.73684 72.6541 10.4793 72.6541 15.3257C72.6541 20.1722 68.7417 23.9158 63.2213 23.9158C57.7334 23.9158 53.7909 20.1722 53.7909 15.3257ZM67.985 15.3257C67.985 12.6885 66.1243 10.7246 63.2213 10.7246C60.3203 10.7246 58.4599 12.6885 58.4599 15.3257C58.4599 17.9642 60.3203 19.9268 63.2213 19.9268C66.1243 19.9268 67.985 17.9642 67.985 15.3257ZM46.2151 7.04704V8.65851H46.1516C44.9353 7.41767 42.9203 6.73684 40.5192 6.73684C35.3676 6.73684 31.5593 10.4559 31.5593 15.2607C31.5593 20.2502 35.4631 23.9066 40.6793 23.9066C43.0157 23.9066 44.9668 23.1949 46.1516 21.9221H46.2151V23.5833C46.2151 25.8152 44.2309 27.4563 41.6074 27.4563C38.9606 27.4563 37.4228 26.734 36.0838 25.4979L33.0202 28.3526C35.0742 30.4649 38.1698 31.6632 41.7052 31.6632C47.0808 31.6632 50.7593 28.1702 50.7593 23.5217V7.04704H46.2151ZM46.0246 16.2506C46.0246 18.267 43.9106 19.8785 41.2236 19.8785C38.1832 19.8785 36.2956 18.1427 36.2956 15.2607C36.2956 12.5955 38.3114 10.7661 41.4157 10.7661C43.8803 10.7661 46.0246 12.4403 46.0246 14.33V16.2506ZM91.5172 23.9158V7.41053H96.5699V23.9158H91.5172ZM91.1804 4.71579V0H96.233V4.71579H91.1804ZM97.9172 23.9158L105.39 15.5697L98.1113 7.41053H104.128L108.463 12.7358H108.528L112.927 7.41053H118.944L111.666 15.5697L119.138 23.9158H113.121L108.528 18.3725H108.463L103.934 23.9158H97.9172Z" fill="#1C1D1D"/>
<path fill-rule="evenodd" clip-rule="evenodd" d="M27.5172 18.5257C27.5172 25.967 21.485 31.9994 14.0437 31.9994C6.60272 31.9994 0.569824 25.967 0.569824 18.5257C0.569824 11.085 6.60272 5.05263 14.0437 5.05263C21.485 5.05263 27.5172 11.085 27.5172 18.5257Z" fill="#DF1995"/>
<path fill-rule="evenodd" clip-rule="evenodd" d="M18.2382 19.5606C18.0478 19.7512 17.7378 19.7512 17.5471 19.5606L16.9526 18.966C16.7619 18.7748 16.7619 18.4655 16.9526 18.2749L17.5471 17.6803C17.7378 17.4897 18.0471 17.4891 18.2382 17.6803L18.833 18.2749C19.0234 18.4655 19.0234 18.7748 18.833 18.966L18.2382 19.5606ZM16.2664 17.5891C16.0757 17.7797 15.7664 17.7797 15.5754 17.5891L14.9812 16.9939C14.7902 16.8033 14.7902 16.494 14.9805 16.3034L15.5754 15.7082C15.7664 15.5177 16.0757 15.5177 16.2664 15.7082L16.8616 16.3034C17.052 16.494 17.052 16.8033 16.8616 16.9939L16.2664 17.5891ZM14.295 15.617C14.1043 15.8082 13.7943 15.8082 13.6036 15.617L13.0091 15.0224C12.818 14.8318 12.818 14.5226 13.0091 14.3314L13.6036 13.7368C13.7943 13.5462 14.1043 13.5462 14.295 13.7368L14.8895 14.3314C15.0805 14.5226 15.0805 14.8318 14.8895 15.0224L14.295 15.617ZM19.3715 21.3847L18.9241 20.9375C18.7337 20.7468 18.7337 20.4376 18.9241 20.2464L19.5189 19.6518C19.71 19.4612 20.0192 19.4612 20.2103 19.6518L20.5501 19.992C20.8563 19.6109 21.1714 19.2384 21.4621 18.842C22.225 17.8007 22.3659 16.3894 21.7078 15.2797C21.5511 15.016 21.3687 14.7763 21.1972 14.5278C20.3117 15.2493 19.0117 15.2084 18.187 14.3834C17.3612 13.5579 17.3203 12.2582 18.042 11.3724C17.7935 11.2005 17.5543 11.0193 17.2901 10.8626C16.1805 10.2037 14.7688 10.3446 13.7283 11.1076C13.3314 11.3981 12.9589 11.7133 12.5778 12.0196L12.9174 12.3599C13.1084 12.5505 13.1084 12.8598 12.9174 13.051L12.3232 13.6456C12.1321 13.8362 11.8229 13.8362 11.6318 13.6456L11.1851 13.1983C9.50404 14.7079 7.97418 16.3695 6.62473 18.2106C5.86186 19.2519 5.72097 20.6632 6.37903 21.7729C6.53573 22.0366 6.71751 22.2763 6.88967 22.5248C7.77522 21.8033 9.07484 21.8442 9.8999 22.6692C10.7253 23.4947 10.7665 24.7944 10.0449 25.6802C10.2934 25.8521 10.5325 26.0333 10.7968 26.1906C11.9064 26.8495 13.3177 26.708 14.3586 25.945C16.2001 24.5956 17.8612 23.0656 19.3715 21.3847Z" fill="white"/>
</g>
<defs>
<clipPath id="clip0_449_2496">
<rect width="118.568" height="32" fill="white" transform="translate(0.569824)"/>
</clipPath>
</defs>
</svg>
